<svg width="88" height="101" viewBox="0 0 88 101" fill="none" xmlns="http://www.w3.org/2000/svg">
<path d="M68.4589 10.576C69.4362 9.09266 71.436 8.69166 72.9096 9.68353C74.4506 10.7208 74.7961 12.8375 73.6552 14.3034C68.4358 21.0089 54.7182 38.8035 46.1299 51.5205C37.2751 64.632 25.8851 84.1935 21.6295 91.5884C20.7026 93.1991 18.6103 93.6777 17.0687 92.6401C15.5965 91.6492 15.2153 89.6476 16.2203 88.185L43.1299 49.0205L68.4589 10.576Z" fill="#FFBD60"/>
<path d="M28.8059 98.4629C27.4333 97.539 26.9759 95.7317 27.7535 94.2713C31.5194 87.1984 42.4176 67.0661 51.5489 53.4998C60.6731 39.9441 75.2065 22.2865 80.3524 16.1219C81.4201 14.8428 83.2787 14.5855 84.6609 15.5158C86.3033 16.6213 86.6056 18.9143 85.3058 20.4076C79.5327 27.0406 64.9469 44.0889 56.3421 56.726C47.2787 70.0366 37.4071 89.4456 33.5748 97.1898C32.6957 98.9662 30.4502 99.5697 28.8059 98.4629Z" fill="#FFBD60"/>
<path d="M58.9577 2.10005C60.3304 3.02395 60.7878 4.83124 60.0102 6.29171C56.2443 13.3646 45.346 33.4969 36.2147 47.0632C27.0906 60.6189 12.5572 78.2765 7.41132 84.4411C6.34361 85.7202 4.48498 85.9775 3.10277 85.0472C1.46039 83.9417 1.15806 81.6487 2.45782 80.1553C8.23099 73.5224 22.8168 56.4741 31.4216 43.837C40.485 30.5264 50.3565 11.1173 54.1889 3.37321C55.0679 1.59678 57.3134 0.993314 58.9577 2.10005Z" fill="#FFBD60"/>
</svg>
