<svg width="103" height="70" viewBox="0 0 103 70" fill="none" xmlns="http://www.w3.org/2000/svg">
<path opacity="0.996" fill-rule="evenodd" clip-rule="evenodd" d="M82.3274 0.000989352C85.8782 -0.0364574 89.1012 0.989108 91.9967 3.0776C94.4536 5.3397 95.2592 8.12328 94.414 11.4284C92.5975 14.8635 89.7407 16.2552 85.8435 15.6038C83.6296 14.9329 81.4321 14.2736 79.2507 13.626C79.576 16.9513 80.9679 19.735 83.4261 21.9768C83.9865 22.9512 84.426 23.977 84.7447 25.0534C96.8551 28.3031 102.935 36.2144 102.985 48.7872C103.247 57.1767 100.17 63.9892 93.7548 69.2247C66.3584 69.5178 38.9617 69.5178 11.5654 69.2247C0.919771 63.249 -2.37659 54.5321 1.67627 43.0735C4.48578 38.5891 8.29493 35.2198 13.1037 32.9646C13.1886 31.7107 13.4816 30.3922 13.9827 29.009C15.0836 27.2149 16.4022 25.6032 17.9383 24.1743C19.2487 17.2221 23.4241 13.999 30.4645 14.505C30.2329 16.6466 30.7454 18.5512 32.0028 20.2187C33.2585 19.936 34.5041 19.7896 35.7387 19.7792C36.3184 18.2042 36.758 16.5926 37.0573 14.9445C44.4996 14.0985 48.675 17.4681 49.5835 25.0534C50.2181 25.7808 51.0242 26.0739 52.0008 25.9324C51.9832 24.6468 52.3493 23.4751 53.0996 22.4163C55.4681 20.3895 56.8601 17.8257 57.275 14.7248C57.2253 14.1623 56.9321 13.796 56.3959 13.626C52.2302 16.1336 47.9819 16.3533 43.65 14.2852C39.944 7.76336 41.7021 3.22171 48.9242 0.660263C56.4113 -0.948364 62.2714 1.3957 66.5048 7.69251C67.677 7.98553 68.8487 7.98553 70.0209 7.69251C71.9675 4.86638 74.4578 2.6688 77.4927 1.09978C79.1681 0.750143 80.7798 0.383895 82.3274 0.000989352ZM50.6822 3.0776C54.7478 2.60591 58.1905 3.77797 61.0109 6.59372C62.2661 8.23931 63.5113 9.85088 64.7467 11.4284C67.1017 10.7175 69.3726 10.864 71.5592 11.8679C73.0487 8.32743 75.4661 5.61712 78.8112 3.73687C83.5835 2.20081 87.6121 3.2996 90.8979 7.03324C91.6174 10.8539 90.0791 12.5387 86.283 12.0877C83.947 11.4691 81.676 10.6633 79.4705 9.67033C77.4769 10.4159 75.9386 11.7344 74.8556 13.626C75.743 15.647 76.5486 17.6981 77.2729 19.7792C78.7607 21.4129 80.0792 23.1709 81.2286 25.0534C81.5345 26.9894 81.3881 28.8943 80.789 30.7671C79.7729 32.1498 78.6741 33.4683 77.4927 34.7227C78.8776 36.3274 80.3425 37.8657 81.8878 39.3376C83.4872 39.2154 85.0989 39.2154 86.7225 39.3376C89.7512 41.9505 91.5822 45.2469 92.2165 49.2267C93.5315 42.0182 91.8464 35.6453 87.162 30.1078C88.3659 29.3725 89.5376 29.5193 90.6781 30.5473C99.3107 37.9013 101.728 46.9114 97.9302 57.5775C96.6657 61.0444 94.541 63.9013 91.5572 66.1481C79.2507 66.4412 66.9443 66.4412 54.6379 66.1481C53.3637 61.3415 55.2681 59.0705 60.3516 59.3356C62.3821 51.6928 63.7007 43.9279 64.3072 36.0413C57.9685 35.2071 54.9653 31.6909 55.2972 25.4929C56.5129 23.4953 57.8314 21.5908 59.2528 19.7792C59.9398 17.8799 60.599 15.9753 61.2306 14.0655C59.357 9.3781 56.4267 8.42584 52.4403 11.2086C50.5983 12.0001 48.6934 12.2931 46.7266 12.0877C44.3695 9.51536 44.5158 7.0248 47.1661 4.6159C48.3344 3.9663 49.5065 3.45356 50.6822 3.0776ZM25.1903 17.1421C25.9129 17.0483 26.5721 17.1947 27.1682 17.5816C27.3877 19.5646 28.1934 21.2494 29.5855 22.636C32.0762 22.9292 34.5665 22.9292 37.0573 22.636C38.6672 21.099 39.766 19.2677 40.3536 17.1421C42.0594 17.9972 43.5243 19.1693 44.7488 20.6582C45.1641 22.2466 45.4573 23.8583 45.6278 25.4929C46.9464 27.1046 48.2649 28.7159 49.5835 30.3276C49.8823 31.4158 49.5162 32.2214 48.4847 32.7449C49.0705 33.3308 49.0705 33.9171 48.4847 34.503C47.4593 34.6493 46.4334 34.7961 45.4081 34.9425C43.2637 36.8697 41.0661 38.7008 38.8153 40.4364C40.7237 47.564 43.0676 54.5229 45.8476 61.3134C47.3367 61.5692 48.5818 62.2285 49.5835 63.2912C49.9166 64.2885 49.8432 65.2409 49.3637 66.1481C37.4968 66.4412 25.6299 66.4412 13.7629 66.1481C3.64204 60.6884 0.931683 52.8501 5.63191 42.634C7.8432 40.2509 10.2605 38.1268 12.8839 36.261C14.5064 35.3121 16.0447 35.3851 17.4988 36.4808C17.7918 37.3598 17.7918 38.2388 17.4988 39.1179C12.121 41.3414 8.97117 45.297 8.04924 50.9848C8.55925 54.7901 10.3173 57.8667 13.3234 60.2146C13.391 55.5527 14.4898 51.1575 16.6198 47.0291C18.2507 45.0737 20.375 44.2681 22.9928 44.6118C23.7566 42.9676 24.8554 41.5756 26.2891 40.4364C26.5822 40.1433 26.5822 39.8505 26.2891 39.5574C24.4727 38.1813 22.7879 36.643 21.2347 34.9425C20.2654 34.3153 19.3132 34.0955 18.3779 34.2832C18.2826 33.0389 17.7698 31.8667 16.8396 30.7671C17.7798 28.7194 19.1716 26.9613 21.0149 25.4929C21.2635 22.0655 22.6553 19.2818 25.1903 17.1421ZM83.6459 32.5251C84.1083 32.4596 84.5478 32.5326 84.9644 32.7449C85.7516 33.8059 86.4838 34.9047 87.162 36.0413C85.9323 36.3485 84.7601 36.4214 83.6459 36.261C83.1242 35.8131 82.6847 35.3002 82.3274 34.7227C82.9655 34.0898 83.405 33.3576 83.6459 32.5251ZM52.8798 33.8437C54.9662 35.7758 57.3106 37.3875 59.9121 38.6783C60.258 39.0045 60.5507 39.3706 60.7911 39.7771C60.1617 45.2689 59.0629 50.7628 57.4947 56.259C56.1938 56.6044 54.9482 57.1169 53.7589 57.7973C51.3279 60.5816 49.3501 60.2155 47.8254 56.6985C46.1825 51.8089 44.6442 46.9008 43.2105 41.9747C45.6177 39.8584 48.2548 38.1004 51.1218 36.7005C51.8782 35.8461 52.464 34.8941 52.8798 33.8437Z" fill="#2C3539"/>
</svg>
